<svg height="512pt" viewBox="0 0 512 512" width="512pt" xmlns="http://www.w3.org/2000/svg" xmlns:xlink="http://www.w3.org/1999/xlink"><linearGradient id="a" gradientUnits="userSpaceOnUse" x1="0" x2="512" y1="256" y2="256"><stop offset="0" stop-color="#00f2fe"/><stop offset=".0208" stop-color="#03effe"/><stop offset=".2931" stop-color="#24d2fe"/><stop offset=".5538" stop-color="#3cbdfe"/><stop offset=".7956" stop-color="#4ab0fe"/><stop offset="1" stop-color="#4facfe"/></linearGradient><path d="m113 188c-22.054688 0-40 17.945312-40 40v30c0 22.054688 17.945312 40 40 40h30c22.054688 0 40-17.945312 40-40v-30c0-22.054688-17.945312-40-40-40zm30 70h-30v-30h30l.023438 30s-.003907 0-.023438 0zm226 142h30c22.054688 0 40-17.945312 40-40v-30c0-22.054688-17.945312-40-40-40h-30c-22.054688 0-40 17.945312-40 40v30c0 22.054688 17.945312 40 40 40zm0-70h30l.023438 30s-.007813 0-.023438 0h-30zm103 2v-212c0-22.054688-17.945312-40-40-40h-26v20c0 11.046875-8.953125 20-20 20s-20-8.953125-20-20v-20h-91v20c0 11.046875-8.953125 20-20 20s-20-8.953125-20-20v-20h-90v20c0 11.046875-8.953125 20-20 20s-20-8.953125-20-20v-20h-25c-22.054688 0-40 17.945312-40 40v312c0 22.054688 17.945312 40 40 40h352c22.054688 0 40-17.945312 40-40 0-11.046875 8.953125-20 20-20s20 8.953125 20 20c0 44.113281-35.886719 80-80 80h-352c-44.113281 0-80-35.886719-80-80v-312c0-44.113281 35.886719-80 80-80h25v-20c0-11.046875 8.953125-20 20-20s20 8.953125 20 20v20h90v-20c0-11.046875 8.953125-20 20-20s20 8.953125 20 20v20h91v-20c0-11.046875 8.953125-20 20-20s20 8.953125 20 20v20h26c44.113281 0 80 35.886719 80 80v212c0 11.046875-8.953125 20-20 20s-20-8.953125-20-20zm-216-92c0 11.046875-8.953125 20-20 20s-20-8.953125-20-20 8.953125-20 20-20 20 8.953125 20 20zm75 0c0 11.046875-8.953125 20-20 20s-20-8.953125-20-20 8.953125-20 20-20 20 8.953125 20 20zm35 0c0-11.046875 8.953125-20 20-20s20 8.953125 20 20-8.953125 20-20 20-20-8.953125-20-20zm0 0" fill="url(#a)"/></svg>