<svg height="512pt" viewBox="0 0 512 512" width="512pt" xmlns="http://www.w3.org/2000/svg" xmlns:xlink="http://www.w3.org/1999/xlink"><linearGradient id="a" gradientUnits="userSpaceOnUse" x1="0" x2="512" y1="256" y2="256"><stop offset="0" stop-color="#00f2fe"/><stop offset=".0208" stop-color="#03effe"/><stop offset=".2931" stop-color="#24d2fe"/><stop offset=".5538" stop-color="#3cbdfe"/><stop offset=".7956" stop-color="#4ab0fe"/><stop offset="1" stop-color="#4facfe"/></linearGradient><path d="m100 120c33.085938 0 60-26.914062 60-60s-26.914062-60-60-60-60 26.914062-60 60 26.914062 60 60 60zm0-80c11.027344 0 20 8.972656 20 20s-8.972656 20-20 20-20-8.972656-20-20 8.972656-20 20-20zm60 194v258c0 11.046875-8.953125 20-20 20s-20-8.953125-20-20v-258c0-11.046875 8.953125-20 20-20s20 8.953125 20 20zm252-114c33.085938 0 60-26.914062 60-60s-26.914062-60-60-60-60 26.914062-60 60 26.914062 60 60 60zm0-80c11.027344 0 20 8.972656 20 20s-8.972656 20-20 20-20-8.972656-20-20 8.972656-20 20-20zm100 159v108c0 26.074219-16.71875 48.316406-40 56.574219v128.425781c0 11.046875-8.953125 20-20 20s-20-8.953125-20-20v-145c0-11.046875 8.953125-20 20-20 11.027344 0 20-8.972656 20-20v-108c0-11.027344-8.972656-20-20-20h-86.933594c-20.726562 0-39.699218-10.46875-50.753906-28.003906l-58.3125-93.269532-58.273438 93.207032c-11.09375 17.597656-30.066406 28.066406-50.792968 28.066406h-86.933594c-11.027344 0-20 8.972656-20 20v108c0 11.027344 8.972656 20 20 20 11.046875 0 20 8.953125 20 20v145c0 11.046875-8.953125 20-20 20s-20-8.953125-20-20v-128.425781c-23.28125-8.257813-40-30.5-40-56.574219v-108c0-33.085938 26.914062-60 60-60h86.933594c6.90625 0 13.230468-3.488281 16.917968-9.332031l75.191407-120.269531c3.652343-5.847657 10.0625-9.398438 16.957031-9.398438s13.304688 3.550781 16.957031 9.398438l75.230469 120.332031c3.648438 5.78125 9.972656 9.269531 16.878906 9.269531h86.933594c33.085938 0 60 26.914062 60 60zm-120 35v258c0 11.046875-8.953125 20-20 20s-20-8.953125-20-20v-258c0-11.046875 8.953125-20 20-20s20 8.953125 20 20zm0 0" fill="url(#a)"/></svg>